<svg width="198" height="107" viewBox="0 0 198 107" fill="none" xmlns="http://www.w3.org/2000/svg">
<rect x="42.1463" y="83.5853" width="22.2439" height="22.2439" fill="white"/>
<rect x="39.8049" y="105.829" width="26.9268" height="1.17073" rx="0.585366" fill="#F7F7F7"/>
<rect y="11" width="107.707" height="74.9268" rx="2" fill="black"/>
<rect x="2.34146" y="13.3414" width="103.024" height="70.2439" rx="1" fill="white"/>
<circle cx="100.098" cy="84.7561" r="0.585366" fill="#559858"/>
<circle cx="95.4146" cy="84.7561" r="0.585366" fill="#E92B2B"/>
<circle cx="97.7561" cy="84.7561" r="0.585366" fill="#C9DE8E"/>
<path d="M2.34146 14.3414C2.34146 13.7891 2.78918 13.3414 3.34146 13.3414H104.366C104.918 13.3414 105.366 13.7891 105.366 14.3414V16.8536H2.34146V14.3414Z" fill="#457FD6"/>
<circle cx="93" cy="15" r="1" fill="#81D11B"/>
<circle cx="97" cy="15" r="1" fill="#CBB80D"/>
<circle cx="101" cy="15" r="1" fill="#E31B1B"/>
<rect x="2.34146" y="16.8536" width="103.024" height="5.85366" fill="#6C92CC"/>
<rect x="2.34146" y="22.7073" width="103.024" height="32.7805" fill="#3F69A9"/>
<path d="M2.34146 55.4878H105.366V82.5854C105.366 83.1376 104.918 83.5854 104.366 83.5854H3.34146C2.78918 83.5854 2.34146 83.1376 2.34146 82.5854V55.4878Z" fill="#21324D"/>
<rect x="15.0488" y="28.3903" width="20.2439" height="20.2439" rx="3" fill="#D1C6C6" stroke="#312C27" stroke-width="2"/>
<rect x="53.8537" y="28.561" width="40.9756" height="3.5122" rx="1.7561" fill="#292323"/>
<rect x="44.4878" y="36.7561" width="50.3415" height="3.5122" rx="1.7561" fill="#292323"/>
<rect x="50.3415" y="44.9512" width="44.4878" height="3.5122" rx="1.7561" fill="#292323"/>
<rect x="16.3902" y="68.1952" width="16.3902" height="1.17073" rx="0.585366" fill="#A89D9D"/>
<rect x="16.3902" y="72.8781" width="14.0488" height="1.17073" rx="0.585366" fill="#A89D9D"/>
<rect x="16.3902" y="77.561" width="10.5366" height="1.17073" rx="0.585366" fill="#A89D9D"/>
<rect x="45.6585" y="68.1952" width="16.3902" height="1.17073" rx="0.585366" fill="#A89D9D"/>
<rect x="45.6585" y="72.8781" width="14.0488" height="1.17073" rx="0.585366" fill="#A89D9D"/>
<rect x="45.6585" y="77.561" width="10.5366" height="1.17073" rx="0.585366" fill="#A89D9D"/>
<rect x="74.9268" y="68.1952" width="16.3902" height="1.17073" rx="0.585366" fill="#A89D9D"/>
<rect x="74.9268" y="72.8781" width="14.0488" height="1.17073" rx="0.585366" fill="#A89D9D"/>
<rect x="74.9268" y="77.561" width="10.5366" height="1.17073" rx="0.585366" fill="#A89D9D"/>
<rect x="16.3902" y="60" width="16.3902" height="3.5122" rx="1.7561" fill="#CEB983"/>
<rect x="45.6585" y="60" width="16.3902" height="3.5122" rx="1.7561" fill="#CEB983"/>
<rect x="74.9268" y="60" width="16.3902" height="3.5122" rx="1.7561" fill="#CEB983"/>
<rect x="149" width="49" height="95.2264" rx="8" fill="#F84E4E"/>
<rect x="149.925" y="0.924561" width="47.1509" height="93.3774" rx="7" fill="black"/>
<path d="M150.849 7.849C150.849 4.53529 153.535 1.849 156.849 1.849H163.792H190.151C193.465 1.849 196.151 4.53529 196.151 7.849V87.3773C196.151 90.691 193.465 93.3773 190.151 93.3773H156.849C153.535 93.3773 150.849 90.691 150.849 87.3773V7.849Z" fill="#3F69A9"/>
<path d="M150.849 7.849C150.849 4.53529 153.535 1.849 156.849 1.849H163.793H190.151C193.465 1.849 196.151 4.53529 196.151 7.849V14.6885H150.849V7.849Z" fill="#6C92CC"/>
<path d="M159.632 1.849H187.368V3.47164C187.368 5.12849 186.025 6.47164 184.368 6.47164H162.632C160.975 6.47164 159.632 5.1285 159.632 3.47164V1.849Z" fill="black"/>
<rect x="166.119" y="9.62964" width="16.0494" height="2.13992" rx="1.06996" fill="#CEB983"/>
<rect x="153.28" y="8.98767" width="3.20988" height="3.20988" rx="1" fill="#6D5858"/>
<rect x="154.35" y="17.1194" width="38.5186" height="18.1893" rx="2" fill="#A07676"/>
<rect x="154.35" y="38.5186" width="12.8395" height="2.13992" rx="1" fill="#CEB983"/>
<rect x="154.35" y="64.1976" width="12.8395" height="2.13992" rx="1" fill="#A9C163"/>
<rect x="154.35" y="42.7983" width="12.8395" height="17.1194" rx="2" fill="#D1C6C6"/>
<rect x="169.329" y="42.7983" width="12.8395" height="17.1194" rx="2" fill="#D1C6C6"/>
<path d="M184.309 44.7983C184.309 43.6938 185.204 42.7983 186.309 42.7983H196.078V59.9177H186.309C185.204 59.9177 184.309 59.0223 184.309 57.9177V44.7983Z" fill="#D1C6C6"/>
<rect x="154.35" y="68.4774" width="12.8395" height="17.1194" rx="2" fill="#B8AD50"/>
<rect x="169.329" y="68.4774" width="12.8395" height="17.1194" rx="2" fill="#B8AD50"/>
<path d="M184.309 70.4774C184.309 69.3728 185.204 68.4774 186.309 68.4774H196.078V85.5968H186.309C185.204 85.5968 184.309 84.7013 184.309 83.5968V70.4774Z" fill="#B8AD50"/>
</svg>
