<svg width="22" height="25" viewBox="0 0 22 25" fill="none" xmlns="http://www.w3.org/2000/svg">
<path fill-rule="evenodd" clip-rule="evenodd" d="M0.777403 0.084028C0.547639 -0.0691482 0.237204 -0.00706129 0.084028 0.222703C-0.0691482 0.452467 -0.0070613 0.762902 0.222703 0.916078L2.22857 2.25332L5.78057 17.6387H5.30668C5.15198 17.6387 5.01369 17.709 4.92198 17.8193C4.86022 17.8707 4.81001 17.9378 4.77807 18.0177L3.6639 20.8031C3.56134 21.0595 3.68605 21.3505 3.94244 21.453C4.01048 21.4802 4.08096 21.4915 4.14971 21.4885L4.16668 21.4887H19.1667C19.4428 21.4887 19.6667 21.2649 19.6667 20.9887C19.6667 20.7126 19.4428 20.4887 19.1667 20.4887H4.86667L5.60668 18.6387H20.3067C20.5828 18.6387 20.8067 18.4149 20.8067 18.1387C20.8067 17.8626 20.5828 17.6387 20.3067 17.6387L18.8067 17.6387L21.8067 4.63875H3.80668L6.34248 15.6272L3.17352 1.90096C3.16945 1.88333 3.1645 1.86614 3.15871 1.84942C3.13402 1.72313 3.06088 1.60635 2.94535 1.52933L0.777403 0.084028ZM6.30668 24.8387C7.13511 24.8387 7.80668 24.1672 7.80668 23.3387C7.80668 22.5103 7.13511 21.8387 6.30668 21.8387C5.47825 21.8387 4.80668 22.5103 4.80668 23.3387C4.80668 24.1672 5.47825 24.8387 6.30668 24.8387ZM18.8067 23.3387C18.8067 24.1672 18.1351 24.8387 17.3067 24.8387C16.4783 24.8387 15.8067 24.1672 15.8067 23.3387C15.8067 22.5103 16.4783 21.8387 17.3067 21.8387C18.1351 21.8387 18.8067 22.5103 18.8067 23.3387Z" fill="white"/>
</svg>
