<svg width="22" height="26" viewBox="0 0 22 26" fill="none" xmlns="http://www.w3.org/2000/svg">
<path fill-rule="evenodd" clip-rule="evenodd" d="M4.57983 16.0737C2.80646 14.3004 2 12.2703 2 10.3268C2 8.3833 2.80646 6.35319 4.57983 4.57983C8.01959 1.14006 13.5966 1.14006 17.0363 4.57983C20.5605 8.10402 21.0114 14.0372 18.0131 18.0303C16.6996 19.7796 14.544 22.0665 12.007 22.9122C11.2966 23.149 10.5425 23.3265 9.78112 23.4596C10.4478 22.7654 11.0677 21.9138 11.401 20.9038C11.5621 20.4155 11.5832 19.7263 11.1639 19.0905C10.8233 18.5739 10.357 18.3585 10.1684 18.2811C9.81357 18.1355 9.43287 18.0897 9.28884 18.0723L9.27035 18.0701C9.14905 18.0553 9.03457 18.043 8.92176 18.0308C8.62202 17.9985 8.33407 17.9675 7.96134 17.8945C7.02874 17.7119 5.79831 17.2922 4.57983 16.0737ZM12.6395 24.8095C10.7415 25.4422 8.59434 25.6943 6.7737 25.7936C6.12147 25.8292 5.51114 25.8452 4.96918 25.852C4.48329 25.8581 4.05234 25.8569 3.6954 25.8559H3.69516C3.52026 25.8554 3.36312 25.855 3.22601 25.8555C2.85978 25.8568 2.91117 25.7484 3.22488 25.542C3.42777 25.4085 3.74041 25.234 4.12076 25.0218C4.28788 24.9285 4.46808 24.828 4.65778 24.7204C5.11674 24.4601 5.63136 24.1587 6.15117 23.82C6.95336 23.2973 7.7679 22.6858 8.40927 21.9995C8.4377 21.9691 8.4658 21.9385 8.49354 21.9078C8.95037 21.4019 9.31049 20.8565 9.50167 20.2771C9.5565 20.111 9.27304 20.0805 8.76265 20.0257H8.76263L8.72854 20.022C8.41062 19.9878 8.00891 19.9432 7.54882 19.8517L7.52157 19.8462C6.3137 19.6022 4.71078 19.0331 3.16561 17.488C-1.0552 13.2671 -1.0552 7.38643 3.16561 3.16561C7.38643 -1.0552 14.2297 -1.0552 18.4505 3.16561C22.6714 7.38643 23.2149 14.4335 19.6125 19.2312C18.2409 21.0578 15.7773 23.7636 12.6395 24.8095ZM8.89169 22.056C8.89148 22.056 8.8871 22.0553 8.87916 22.0537C8.88793 22.0551 8.8919 22.0559 8.89169 22.056ZM6.01518 12.2582C6.97795 12.2582 7.75842 11.4778 7.75842 10.515C7.75842 9.55223 6.97795 8.77176 6.01518 8.77176C5.05242 8.77176 4.27195 9.55223 4.27195 10.515C4.27195 11.4778 5.05242 12.2582 6.01518 12.2582ZM12.6395 10.515C12.6395 11.4778 11.859 12.2582 10.8962 12.2582C9.93349 12.2582 9.15301 11.4778 9.15301 10.515C9.15301 9.55223 9.93349 8.77176 10.8962 8.77176C11.859 8.77176 12.6395 9.55223 12.6395 10.515ZM15.7773 12.2582C16.7401 12.2582 17.5206 11.4778 17.5206 10.515C17.5206 9.55223 16.7401 8.77176 15.7773 8.77176C14.8146 8.77176 14.0341 9.55223 14.0341 10.515C14.0341 11.4778 14.8146 12.2582 15.7773 12.2582Z" fill="white"/>
</svg>
