<svg width="102" height="104" viewBox="0 0 102 104" fill="none" xmlns="http://www.w3.org/2000/svg">
<rect x="8.08887" y="41.9852" width="85.5111" height="60.0889" fill="#D85D17"/>
<path d="M19.3358 7.85217C21.9583 3.01376 27.0198 0 32.5232 0H70.3269C75.9684 0 81.1329 3.16537 83.6932 8.19243L101.689 43.5259H0L19.3358 7.85217Z" fill="#E35252"/>
<path d="M8.47405 52C13.1541 52 16.9481 48.206 16.9481 43.5259L-2.78694e-05 43.5259C-2.82785e-05 48.206 3.79394 52 8.47405 52Z" fill="#873030"/>
<path d="M25.4222 52C30.1023 52 33.8962 48.206 33.8962 43.5259L16.9481 43.5259C16.9481 48.206 20.7421 52 25.4222 52Z" fill="#873030"/>
<path d="M42.3704 52C47.0505 52 50.8445 48.206 50.8445 43.5259L33.8963 43.5259C33.8963 48.206 37.6903 52 42.3704 52Z" fill="#873030"/>
<path d="M59.3185 52C63.9986 52 67.7926 48.206 67.7926 43.5259L50.8445 43.5259C50.8445 48.206 54.6384 52 59.3185 52Z" fill="#873030"/>
<path d="M76.2666 52C80.9468 52 84.7407 48.206 84.7407 43.5259L67.7926 43.5259C67.7926 48.206 71.5865 52 76.2666 52Z" fill="#873030"/>
<path d="M93.2148 52C97.8949 52 101.689 48.206 101.689 43.5259L84.7407 43.5259C84.7407 48.206 88.5347 52 93.2148 52Z" fill="#873030"/>
<path d="M16.6926 68C16.6926 66.2879 18.0805 64.9 19.7926 64.9H33.7482C35.4602 64.9 36.8482 66.2879 36.8482 68V102.004H16.6926V68Z" fill="#60CCD2" stroke="#29464F" stroke-width="1.8"/>
<rect x="43.3704" y="65" width="44.2222" height="26.8889" rx="3" fill="#4BC4C4" stroke="#493838" stroke-width="2"/>
<path d="M68.0963 66.0001H66.878L55 90.9001H56.5228L68.0963 66.0001Z" fill="white" fill-opacity="0.1"/>
<path d="M78.1111 66.0001H72.5224L61.9333 90.9001H67.2279L78.1111 66.0001Z" fill="white" fill-opacity="0.5"/>
<path d="M71.1777 66.0001H68.9001L58.0814 90.9001H60.6437L71.1777 66.0001Z" fill="white" fill-opacity="0.2"/>
<rect x="2" y="101" width="97" height="3" rx="1.5" fill="#FDA522"/>
</svg>
