<svg width="52" height="41" viewBox="0 0 52 41" fill="none" xmlns="http://www.w3.org/2000/svg">
<path d="M2.08325 5.31447e-09C0.938398 -8.51633e-05 -0.000111068 1.02351 1.58304e-07 2.27655V38.1928C-0.000444745 39.4461 0.936952 40.4742 2.08325 40.4741H48.9894C50.1358 40.4742 51.0732 39.4462 51.0727 38.1928V2.27655C51.0727 1.02354 50.1342 -8.51633e-05 48.9894 5.31447e-09H2.08325ZM7.63592 5.45612H43.4237L25.532 22.5564L7.63592 5.45612ZM46.9061 8.17942V33.4425L33.8218 20.6838L46.9061 8.17942ZM4.16663 8.19364L17.3052 20.7527L4.16663 33.566V8.19364ZM30.661 23.7041L43.1087 35.8449H8.09212L20.4681 23.7754L24.1569 27.3019C24.9391 28.049 26.1161 28.0489 26.8984 27.3019L30.661 23.7041Z" fill="white"/>
</svg>
