<svg width="39" height="39" viewBox="0 0 39 39" fill="none" xmlns="http://www.w3.org/2000/svg">
<path d="M19.5 3.51459C24.7076 3.51459 25.3225 3.51459 27.378 3.62929C28.6158 3.64196 29.8421 3.86859 31.0027 4.29918C31.8487 4.61204 32.6139 5.11062 33.2418 5.75824C33.8894 6.38614 34.388 7.15126 34.7008 7.99729C35.1314 9.15788 35.358 10.3842 35.3707 11.622C35.4671 13.6775 35.4854 14.2924 35.4854 19.5C35.4854 24.7076 35.4854 25.3225 35.3707 27.378C35.358 28.6158 35.1314 29.8421 34.7008 31.0027C34.3755 31.8424 33.8786 32.605 33.2418 33.2418C32.605 33.8786 31.8424 34.3755 31.0027 34.7008C29.8421 35.1314 28.6158 35.358 27.378 35.3707C25.3225 35.4671 24.7076 35.4854 19.5 35.4854C14.2924 35.4854 13.6775 35.4854 11.622 35.3707C10.3842 35.358 9.15788 35.1314 7.99729 34.7008C7.15126 34.388 6.38614 33.8894 5.75824 33.2418C5.11062 32.6139 4.61204 31.8487 4.29918 31.0027C3.86859 29.8421 3.64196 28.6158 3.62929 27.378C3.53294 25.3225 3.51459 24.7076 3.51459 19.5C3.51459 14.2924 3.51459 13.6775 3.62929 11.622C3.64196 10.3842 3.86859 9.15788 4.29918 7.99729C4.61204 7.15126 5.11062 6.38614 5.75824 5.75824C6.38614 5.11062 7.15126 4.61204 7.99729 4.29918C9.15788 3.86859 10.3842 3.64196 11.622 3.62929C13.6775 3.53294 14.2924 3.51459 19.5 3.51459ZM19.5 0C14.2235 0 13.5399 0.0229412 11.4706 0.119294C9.8515 0.153387 8.25013 0.46373 6.73553 1.03694C5.4393 1.53455 4.26148 2.29777 3.27772 3.27759C2.29395 4.2574 1.526 5.43214 1.02318 6.72635C0.45364 8.24468 0.14794 9.84921 0.119294 11.4706C0.0229412 13.5399 0 14.2235 0 19.5C0 24.7765 0.0229412 25.4601 0.119294 27.5294C0.153387 29.1485 0.46373 30.7499 1.03694 32.2645C1.53455 33.5607 2.29777 34.7385 3.27759 35.7223C4.2574 36.706 5.43214 37.474 6.72635 37.9768C8.24096 38.55 9.84233 38.8604 11.4614 38.8945C13.5399 39 14.2235 39 19.5 39C24.7765 39 25.4647 39 27.5386 38.8807C29.1577 38.8466 30.759 38.5363 32.2736 37.9631C33.5682 37.4644 34.7442 36.7007 35.7263 35.7209C36.7085 34.7412 37.475 33.567 37.9768 32.2736C38.55 30.759 38.8604 29.1577 38.8945 27.5386C39 25.4601 39 24.7765 39 19.5C39 14.2235 39 13.5353 38.8807 11.4614C38.8466 9.84233 38.5363 8.24096 37.9631 6.72635C37.4644 5.43182 36.7007 4.25579 35.7209 3.27366C34.7412 2.29153 33.567 1.52499 32.2736 1.02318C30.7553 0.45364 29.1508 0.14794 27.5294 0.119294C25.4601 0.0229412 24.7765 0 19.5 0Z" fill="white"/>
<path d="M19.5001 9.48853C17.52 9.48853 15.5843 10.0757 13.938 11.1758C12.2916 12.2759 11.0084 13.8394 10.2506 15.6688C9.49286 17.4982 9.2946 19.5112 9.6809 21.4532C10.0672 23.3953 11.0207 25.1791 12.4208 26.5793C13.821 27.9794 15.6049 28.9329 17.5469 29.3192C19.489 29.7055 21.5019 29.5072 23.3313 28.7495C25.1607 27.9918 26.7243 26.7085 27.8243 25.0622C28.9244 23.4158 29.5116 21.4801 29.5116 19.5001C29.5116 16.8448 28.4568 14.2984 26.5793 12.4208C24.7018 10.5433 22.1553 9.48853 19.5001 9.48853ZM19.5001 26.0062C18.2144 26.0062 16.9575 25.625 15.8885 24.9108C14.8194 24.1966 13.9861 23.1815 13.4939 21.9937C13.0016 20.806 12.8726 19.499 13.1231 18.2379C13.3736 16.9769 13.9924 15.8184 14.9012 14.909C15.81 13.9996 16.968 13.38 18.2289 13.1286C19.4897 12.8772 20.7968 13.0053 21.9849 13.4967C23.173 13.9881 24.1887 14.8207 24.9037 15.8892C25.6186 16.9578 26.0007 18.2144 26.0016 19.5001C26.0004 21.224 25.315 22.877 24.096 24.096C22.877 25.315 21.224 26.0004 19.5001 26.0016V26.0062Z" fill="white"/>
<path d="M29.9107 11.4293C31.203 11.4293 32.2507 10.3816 32.2507 9.08927C32.2507 7.79692 31.203 6.74927 29.9107 6.74927C28.6183 6.74927 27.5707 7.79692 27.5707 9.08927C27.5707 10.3816 28.6183 11.4293 29.9107 11.4293Z" fill="white"/>
</svg>
