<svg width="32" height="27" viewBox="0 0 32 27" fill="none" xmlns="http://www.w3.org/2000/svg">
<path d="M13.6664 3.1349C13.8081 2.47624 14.0505 2.02024 14.3213 1.71314C14.7367 1.24214 15.3251 1 16.0714 1C16.8177 1 17.4062 1.24214 17.8215 1.71314C18.0923 2.02024 18.3348 2.47624 18.4764 3.1349C16.8917 2.79116 15.2511 2.79116 13.6664 3.1349Z" stroke="white" stroke-width="2"/>
<path d="M16.0715 23.5L19.5087 23.5C19.368 24.5193 19.0092 25.0592 18.6244 25.3706C18.084 25.808 17.2502 26 16.0715 26C14.8928 26 14.059 25.808 13.5186 25.3706C13.1337 25.0592 12.7749 24.5193 12.6342 23.5L16.0715 23.5Z" stroke="white" stroke-width="2"/>
<path d="M6.46428 13.4843C6.46428 7.98259 10.7921 3.57141 16.0714 3.57141C21.3507 3.57141 25.6786 7.98259 25.6786 13.4843V15.2802C25.6786 17.2715 26.3767 19.1998 27.6515 20.7295C28.3319 21.546 27.7513 22.7857 26.6884 22.7857H5.06488C4.02698 22.7857 3.49203 21.5447 4.20468 20.7901C5.65584 19.2536 6.46428 17.2201 6.46428 15.1067V13.4843Z" stroke="white" stroke-width="2"/>
</svg>
