<svg width="111" height="95" viewBox="0 0 111 95" fill="none" xmlns="http://www.w3.org/2000/svg">
<rect width="110.221" height="95" rx="10" fill="white"/>
<circle cx="27.0864" cy="43.593" r="10.5267" fill="#E0AC69"/>
<path d="M27.2926 33.0663C21.3068 33.0663 18.4171 37.1944 17.6859 38.8457H36.4815C36.1681 38.02 33.2784 33.0663 27.2926 33.0663Z" fill="#332C2C"/>
<path d="M26.958 52.4685C30.6391 52.4685 32.4162 49.225 32.8658 47.9276L21.3071 47.9276C21.4998 48.5763 23.2769 52.4685 26.958 52.4685Z" fill="white"/>
<path d="M27.1109 54.9453C21.0775 54.9453 15.8429 57.8292 12.5585 62.2955C8.63208 67.6346 14.2952 73.5219 20.9226 73.5219H33.6629C40.2904 73.5219 45.9156 67.6289 41.925 62.3375C38.5386 57.8473 33.1632 54.9453 27.1109 54.9453Z" fill="#184A95"/>
<path d="M0 10C0 4.47716 4.47715 0 10 0H100.221C105.744 0 110.221 4.47715 110.221 10V14.1713H0V10Z" fill="#5B58D3"/>
<circle cx="80.6243" cy="6.82316" r="2.62431" fill="#81D11B"/>
<circle cx="88.4972" cy="6.82316" r="2.62431" fill="#CBB80D"/>
<circle cx="96.3702" cy="6.82316" r="2.62431" fill="#E31B1B"/>
<rect x="54.5857" y="31.4917" width="46.1878" height="7.34807" rx="3.67403" fill="#917171"/>
<rect x="54.5857" y="47.7625" width="46.1878" height="7.34807" rx="3.67403" fill="#917171"/>
<rect x="54.5857" y="64.0332" width="46.1878" height="7.34807" rx="3.67403" fill="#917171"/>
</svg>
