<svg width="150" height="118" viewBox="0 0 150 118" fill="none" xmlns="http://www.w3.org/2000/svg">
<rect x="45" y="77.5" width="23.75" height="23.75" fill="white"/>
<rect x="42.5" y="101.25" width="28.75" height="1.25" rx="0.625" fill="#F7F7F7"/>
<rect width="115" height="80" rx="4" fill="black"/>
<rect x="4" y="4" width="107" height="72" rx="1" fill="#84D5DA"/>
<circle cx="106.875" cy="78.75" r="0.625" fill="#559858"/>
<circle cx="101.875" cy="78.75" r="0.625" fill="#E92B2B"/>
<circle cx="104.375" cy="78.75" r="0.625" fill="#C9DE8E"/>
<rect x="54.5834" y="39.9999" width="11.6667" height="26.25" fill="#174A4E"/>
<rect x="72.0834" y="34.1665" width="11.6667" height="32.0833" fill="#3560CD"/>
<rect x="89.5831" y="25.4165" width="11.6667" height="40.8333" fill="#BC654A"/>
<rect x="13.75" y="48.75" width="32.0833" height="5.83333" rx="2.91667" fill="#788094"/>
<rect x="13.75" y="60.4165" width="32.0833" height="5.83333" rx="2.91667" fill="#8990A3"/>
<circle cx="26.875" cy="26.875" r="12.125" stroke="#4E6EBE" stroke-width="2"/>
<path d="M40 27.5C40.625 19.375 34.1237 13.75 26.875 13.75V27.5H40Z" fill="#FCD4D4"/>
<circle cx="109.045" cy="51.2079" r="23.2079" fill="#E0AC69"/>
<path d="M109.5 28C96.3033 28 89.9325 37.1011 88.3204 40.7416H129.758C129.067 38.9213 122.697 28 109.5 28Z" fill="#332C2C"/>
<path d="M108.762 70.7753C116.877 70.7753 120.795 63.6244 121.787 60.764L96.3034 60.764C96.7284 62.1942 100.646 70.7753 108.762 70.7753Z" fill="white"/>
<path d="M109.099 76.2361C90.6234 76.2361 75.5455 88.5023 70.6668 105.345C68.823 111.711 74.3726 117.191 81 117.191H138C144.627 117.191 150.176 111.704 148.267 105.358C143.197 88.5084 127.579 76.2361 109.099 76.2361Z" fill="#184A95"/>
</svg>
