<svg width="231" height="103" viewBox="0 0 231 103" fill="none" xmlns="http://www.w3.org/2000/svg">
<rect x="45" y="77.5" width="23.75" height="23.75" fill="white"/>
<rect x="42.5" y="101.25" width="28.75" height="1.25" rx="0.625" fill="#F7F7F7"/>
<rect width="115" height="80" rx="4" fill="black"/>
<rect x="4" y="4" width="107" height="72" rx="1" fill="#84D5DA"/>
<circle cx="106.875" cy="78.75" r="0.625" fill="#559858"/>
<circle cx="101.875" cy="78.75" r="0.625" fill="#E92B2B"/>
<circle cx="104.375" cy="78.75" r="0.625" fill="#C9DE8E"/>
<rect x="54.5834" y="39.9999" width="11.6667" height="26.25" fill="#174A4E"/>
<rect x="72.0834" y="34.1665" width="11.6667" height="32.0833" fill="#3560CD"/>
<rect x="89.5831" y="25.4165" width="11.6667" height="40.8333" fill="#BC654A"/>
<rect x="13.75" y="48.75" width="32.0833" height="5.83333" rx="2.91667" fill="#788094"/>
<rect x="13.75" y="60.4165" width="32.0833" height="5.83333" rx="2.91667" fill="#8990A3"/>
<circle cx="26.875" cy="26.875" r="12.125" stroke="#4E6EBE" stroke-width="2"/>
<path d="M40 27.5C40.625 19.375 34.1237 13.75 26.875 13.75V27.5H40Z" fill="#FCD4D4"/>
<rect x="186.944" y="54.5352" width="32.3943" height="5.18309" transform="rotate(90 186.944 54.5352)" fill="#2C5B5E"/>
<path fill-rule="evenodd" clip-rule="evenodd" d="M139 38.9859C139 46.1422 144.801 51.9436 151.958 51.9436H218.042C225.199 51.9436 231 46.1422 231 38.9859C231 31.8295 225.199 26.0282 218.042 26.0282C217.97 26.0282 217.899 26.0287 217.827 26.0299C216.594 18.675 210.198 13.0704 202.493 13.0704C199.658 13.0704 197 13.8293 194.711 15.155C191.085 8.50894 184.034 4 175.93 4C164.122 4 154.549 13.5723 154.549 25.3803C154.549 25.6855 154.556 25.9892 154.568 26.2912C153.725 26.1187 152.852 26.0282 151.958 26.0282C144.801 26.0282 139 31.8295 139 38.9859Z" fill="white"/>
<rect x="157.141" y="66.1971" width="54.4225" height="12.9577" rx="3" fill="#4C5A70"/>
<circle cx="195.366" cy="72.676" r="1.94366" fill="#EB3939"/>
<circle cx="203.141" cy="72.676" r="1.94366" fill="#4BCA6E"/>
<rect x="163.62" y="69.4365" width="2.59155" height="6.47887" rx="1" fill="#C4C4C4"/>
<rect x="170.099" y="69.4365" width="2.59155" height="6.47887" rx="1" fill="#C4C4C4"/>
<rect x="176.577" y="69.4365" width="2.59155" height="6.47887" rx="1" fill="#C4C4C4"/>
<rect x="157.141" y="49.3521" width="54.4225" height="12.9577" rx="3" fill="#4C5A70"/>
<circle cx="195.366" cy="55.831" r="1.94366" fill="#EB3939"/>
<circle cx="203.141" cy="55.831" r="1.94366" fill="#4BCA6E"/>
<rect x="163.62" y="52.5916" width="2.59155" height="6.47887" rx="1" fill="#C4C4C4"/>
<rect x="170.099" y="52.5916" width="2.59155" height="6.47887" rx="1" fill="#C4C4C4"/>
<rect x="176.577" y="52.5916" width="2.59155" height="6.47887" rx="1" fill="#C4C4C4"/>
<rect x="157.141" y="32.507" width="54.4225" height="12.9577" rx="3" fill="#4C5A70"/>
<circle cx="195.366" cy="38.9859" r="1.94366" fill="#EB3939"/>
<circle cx="203.141" cy="38.9859" r="1.94366" fill="#4BCA6E"/>
<rect x="163.62" y="35.7465" width="2.59155" height="6.47887" rx="1" fill="#C4C4C4"/>
<rect x="170.099" y="35.7465" width="2.59155" height="6.47887" rx="1" fill="#C4C4C4"/>
<rect x="176.577" y="35.7465" width="2.59155" height="6.47887" rx="1" fill="#C4C4C4"/>
<rect x="153.253" y="88.8732" width="31.0986" height="3.88732" fill="#2C5B5E"/>
<rect x="184.352" y="88.8732" width="31.0986" height="3.88732" fill="#2C5B5E"/>
<circle cx="184.352" cy="90.8169" r="5.18309" fill="#40A39D"/>
</svg>
