<svg width="92" height="104" viewBox="0 0 92 104" fill="none" xmlns="http://www.w3.org/2000/svg">
<path fill-rule="evenodd" clip-rule="evenodd" d="M8.76208 5.64172C6.00066 5.64172 3.76208 7.88029 3.76208 10.6417V89.4719L23.0202 89.4719V69.5494C23.0202 66.788 25.2588 64.5494 28.0202 64.5494H35.0128C37.7743 64.5494 40.0128 66.788 40.0128 69.5494V89.4719L59.2713 89.4719V10.6417C59.2713 7.8803 57.0327 5.64172 54.2713 5.64172H8.76208Z" fill="#273258"/>
<path d="M15.6429 5.64171C15.6429 2.52588 18.1688 0 21.2847 0H41.8C44.9158 0 47.4417 2.52588 47.4417 5.64171H15.6429Z" fill="#8E5656"/>
<rect y="11.2834" width="62.5717" height="5.64171" rx="2.82086" fill="#8E5656"/>
<rect x="42.8451" y="65.6823" width="13.5941" height="13.5941" rx="2" fill="#DFC3C3"/>
<rect x="6.59399" y="65.6823" width="13.5941" height="13.5941" rx="2" fill="#DFC3C3"/>
<rect x="8.97546" y="27.4392" width="13.5941" height="13.5941" rx="2" fill="#79C1EA"/>
<rect x="40.6949" y="27.4392" width="13.5941" height="13.5941" rx="2" fill="#79C1EA"/>
<rect x="24.8353" y="27.4392" width="13.5941" height="13.5941" rx="2" fill="#79C1EA"/>
<rect x="8.97546" y="43.2991" width="13.5941" height="13.5941" rx="2" fill="#79C1EA"/>
<rect x="40.6949" y="43.2991" width="13.5941" height="13.5941" rx="2" fill="#79C1EA"/>
<rect x="24.8353" y="43.2991" width="13.5941" height="13.5941" rx="2" fill="#79C1EA"/>
<circle cx="62.1222" cy="57.4155" r="16.3849" fill="#F4D5AC"/>
<path d="M62.4434 41.0306C53.1266 41.0306 48.6287 47.4561 47.4906 50.0263H76.746C76.2581 48.7412 71.7603 41.0306 62.4434 41.0306Z" fill="#332C2C"/>
<path d="M62.1605 75.0856C50.3654 75.0856 40.5318 82.1668 36.2102 92.3151C33.6136 98.4127 39.2229 104 45.8503 104H79.0368C85.6642 104 91.2645 98.4027 88.5918 92.3381C84.1141 82.1774 73.9644 75.0856 62.1605 75.0856Z" fill="#43484F"/>
<path d="M57.1864 75.522C56.5453 75.6502 55.2631 75.7784 53.468 76.4195L58.3189 93.9302C58.5589 94.7965 59.3474 95.3962 60.2463 95.3962H63.3644C64.2605 95.3962 65.0472 94.8002 65.2898 93.9375L70.2649 76.2401C69.1249 75.7081 65.6381 75.2476 63.9821 75.1374C63.3119 75.0927 61.6741 75.0091 60.2637 75.1373C59.6734 75.191 59.3869 75.1875 58.9815 75.2656C58.5968 75.2656 57.4676 75.4658 57.1864 75.522Z" fill="white"/>
<path fill-rule="evenodd" clip-rule="evenodd" d="M58.7251 75.2835C58.9815 75.2117 60.0073 75.1373 60.1355 75.1374C60.186 75.1374 60.2758 75.1316 60.3697 75.1254C60.473 75.1187 60.5813 75.1117 60.6484 75.1117L61.4177 75.0604H62.3153C62.5717 75.0604 64.6233 75.1374 65.1361 75.2656L63.2128 77.9582H60.5202L58.7251 75.2835ZM63.2128 77.9582L60.5202 77.9582L59.526 91.3246C59.4397 92.4844 60.3575 93.4729 61.5205 93.4729H61.9913C63.1413 93.4729 64.0544 92.5055 63.988 91.3574L63.2128 77.9582Z" fill="#E82B2B"/>
<rect x="72.3165" y="94.6268" width="9.74478" height="1.53865" fill="white"/>
</svg>
