<svg width="84" height="41" viewBox="0 0 84 41" fill="none" xmlns="http://www.w3.org/2000/svg">
<path d="M0.08 13.262V1.562C0.08 1.322 0.194 1.142 0.422 1.022C0.65 0.902 0.926 0.842 1.25 0.842C1.574 0.842 1.85 0.902 2.078 1.022C2.306 1.142 2.42 1.322 2.42 1.562V6.476L6.308 1.184C6.476 0.956 6.692 0.842 6.956 0.842C7.256 0.842 7.556 0.974 7.856 1.238C8.156 1.49 8.306 1.76 8.306 2.048C8.306 2.228 8.258 2.378 8.162 2.498L4.94 6.53L8.864 12.506C8.948 12.626 8.99 12.764 8.99 12.92C8.99 13.208 8.84 13.478 8.54 13.73C8.252 13.97 7.934 14.09 7.586 14.09C7.226 14.09 6.956 13.94 6.776 13.64L3.392 8.51L2.42 9.734V13.262C2.42 13.49 2.3 13.67 2.06 13.802C1.832 13.934 1.562 14 1.25 14C0.926 14 0.65 13.934 0.422 13.802C0.194 13.67 0.08 13.49 0.08 13.262ZM9.60102 10.508V6.188C9.60102 6.008 9.71502 5.84 9.94302 5.684C10.183 5.528 10.459 5.45 10.771 5.45C11.071 5.45 11.335 5.528 11.563 5.684C11.803 5.84 11.923 6.008 11.923 6.188V10.508C11.923 10.928 12.079 11.306 12.391 11.642C12.703 11.966 13.075 12.128 13.507 12.128C13.939 12.128 14.305 11.966 14.605 11.642C14.917 11.306 15.073 10.928 15.073 10.508V6.17C15.073 5.978 15.187 5.81 15.415 5.666C15.655 5.522 15.931 5.45 16.243 5.45C16.579 5.45 16.855 5.522 17.071 5.666C17.287 5.81 17.395 5.978 17.395 6.17V10.508C17.395 11.48 17.011 12.332 16.243 13.064C15.475 13.796 14.563 14.162 13.507 14.162C12.451 14.162 11.533 13.796 10.753 13.064C9.98502 12.332 9.60102 11.48 9.60102 10.508ZM19.1485 17.24V6.17C19.1485 5.954 19.2505 5.78 19.4545 5.648C19.6705 5.516 19.9345 5.45 20.2465 5.45C20.5585 5.45 20.8165 5.516 21.0205 5.648C21.2245 5.78 21.3265 5.954 21.3265 6.17V6.71C21.5545 6.326 21.8785 6.002 22.2985 5.738C22.7305 5.474 23.2165 5.342 23.7565 5.342C24.6565 5.342 25.4185 5.702 26.0425 6.422C26.6665 7.13 26.9785 7.988 26.9785 8.996V10.472C26.9785 11.444 26.6605 12.302 26.0245 13.046C25.3885 13.79 24.6565 14.162 23.8285 14.162C23.3125 14.162 22.8325 14.024 22.3885 13.748C21.9565 13.46 21.6505 13.124 21.4705 12.74V17.24C21.4705 17.432 21.3505 17.6 21.1105 17.744C20.8825 17.9 20.6065 17.978 20.2825 17.978C19.9585 17.978 19.6885 17.9 19.4725 17.744C19.2565 17.6 19.1485 17.432 19.1485 17.24ZM21.4705 10.796C21.4705 11.036 21.6325 11.318 21.9565 11.642C22.2805 11.966 22.6465 12.128 23.0545 12.128C23.4745 12.128 23.8465 11.96 24.1705 11.624C24.4945 11.276 24.6565 10.892 24.6565 10.472V8.996C24.6565 8.576 24.4945 8.204 24.1705 7.88C23.8465 7.544 23.4625 7.376 23.0185 7.376C22.6105 7.376 22.2505 7.526 21.9385 7.826C21.6265 8.126 21.4705 8.516 21.4705 8.996V10.796ZM28.4645 13.262V6.17C28.4645 5.954 28.5665 5.78 28.7705 5.648C28.9865 5.516 29.2625 5.45 29.5985 5.45C29.8985 5.45 30.1445 5.516 30.3365 5.648C30.5405 5.78 30.6425 5.954 30.6425 6.17V6.908C30.8345 6.488 31.1345 6.122 31.5425 5.81C31.9505 5.498 32.3885 5.342 32.8565 5.342H33.4145C33.6305 5.342 33.8225 5.444 33.9905 5.648C34.1705 5.852 34.2605 6.086 34.2605 6.35C34.2605 6.626 34.1705 6.866 33.9905 7.07C33.8225 7.274 33.6305 7.376 33.4145 7.376H32.8565C32.3045 7.376 31.8185 7.622 31.3985 8.114C30.9905 8.606 30.7865 9.248 30.7865 10.04V13.262C30.7865 13.442 30.6665 13.61 30.4265 13.766C30.1865 13.922 29.9105 14 29.5985 14C29.2745 14 29.0045 13.928 28.7885 13.784C28.5725 13.628 28.4645 13.454 28.4645 13.262ZM34.7498 10.472V8.996C34.7498 8.012 35.1338 7.16 35.9018 6.44C36.6698 5.708 37.5878 5.342 38.6558 5.342C39.6998 5.342 40.6118 5.702 41.3918 6.422C42.1718 7.142 42.5618 8 42.5618 8.996V10.472C42.5618 11.444 42.1718 12.302 41.3918 13.046C40.6118 13.79 39.6998 14.162 38.6558 14.162C37.6118 14.162 36.6998 13.79 35.9198 13.046C35.1398 12.302 34.7498 11.444 34.7498 10.472ZM37.0718 10.472C37.0718 10.904 37.2278 11.288 37.5398 11.624C37.8518 11.96 38.2238 12.128 38.6558 12.128C39.0758 12.128 39.4418 11.96 39.7538 11.624C40.0778 11.288 40.2398 10.904 40.2398 10.472V8.996C40.2398 8.588 40.0778 8.216 39.7538 7.88C39.4418 7.544 39.0758 7.376 38.6558 7.376C38.2238 7.376 37.8518 7.544 37.5398 7.88C37.2278 8.204 37.0718 8.576 37.0718 8.996V10.472ZM43.1764 16.988C43.1764 16.34 43.3744 16.016 43.7704 16.016C44.3344 16.016 44.8864 15.812 45.4264 15.404C45.9784 14.996 46.2844 14.318 46.3444 13.37L43.2484 6.746C43.2004 6.626 43.1764 6.524 43.1764 6.44C43.1764 6.152 43.3504 5.894 43.6984 5.666C44.0584 5.438 44.4004 5.324 44.7244 5.324C45.0844 5.324 45.3064 5.456 45.3904 5.72L47.5504 11.102L49.2964 5.72C49.3804 5.456 49.5844 5.324 49.9084 5.324C50.2204 5.324 50.5624 5.444 50.9344 5.684C51.3064 5.912 51.4924 6.176 51.4924 6.476C51.4924 6.572 51.4744 6.662 51.4384 6.746L48.8104 13.46L48.5044 14.252C48.3604 14.66 48.2524 14.942 48.1804 15.098C48.1204 15.254 48.0064 15.494 47.8384 15.818C47.6824 16.154 47.5384 16.394 47.4064 16.538C47.2864 16.694 47.1124 16.88 46.8844 17.096C46.6564 17.324 46.4224 17.486 46.1824 17.582C45.9544 17.69 45.6724 17.78 45.3364 17.852C45.0004 17.936 44.6344 17.978 44.2384 17.978C43.8904 17.978 43.6264 17.912 43.4464 17.78C43.2664 17.648 43.1764 17.384 43.1764 16.988ZM0.08 36.262V24.562C0.08 24.322 0.194 24.142 0.422 24.022C0.65 23.902 0.926 23.842 1.25 23.842C1.574 23.842 1.85 23.902 2.078 24.022C2.306 24.142 2.42 24.322 2.42 24.562V29.476L6.308 24.184C6.476 23.956 6.692 23.842 6.956 23.842C7.256 23.842 7.556 23.974 7.856 24.238C8.156 24.49 8.306 24.76 8.306 25.048C8.306 25.228 8.258 25.378 8.162 25.498L4.94 29.53L8.864 35.506C8.948 35.626 8.99 35.764 8.99 35.92C8.99 36.208 8.84 36.478 8.54 36.73C8.252 36.97 7.934 37.09 7.586 37.09C7.226 37.09 6.956 36.94 6.776 36.64L3.392 31.51L2.42 32.734V36.262C2.42 36.49 2.3 36.67 2.06 36.802C1.832 36.934 1.562 37 1.25 37C0.926 37 0.65 36.934 0.422 36.802C0.194 36.67 0.08 36.49 0.08 36.262ZM9.50764 33.472V31.996C9.50764 31.012 9.89164 30.16 10.6596 29.44C11.4276 28.708 12.3456 28.342 13.4136 28.342C14.4576 28.342 15.3696 28.702 16.1496 29.422C16.9296 30.142 17.3196 31 17.3196 31.996V33.472C17.3196 34.444 16.9296 35.302 16.1496 36.046C15.3696 36.79 14.4576 37.162 13.4136 37.162C12.3696 37.162 11.4576 36.79 10.6776 36.046C9.89764 35.302 9.50764 34.444 9.50764 33.472ZM11.8296 33.472C11.8296 33.904 11.9856 34.288 12.2976 34.624C12.6096 34.96 12.9816 35.128 13.4136 35.128C13.8336 35.128 14.1996 34.96 14.5116 34.624C14.8356 34.288 14.9976 33.904 14.9976 33.472V31.996C14.9976 31.588 14.8356 31.216 14.5116 30.88C14.1996 30.544 13.8336 30.376 13.4136 30.376C12.9816 30.376 12.6096 30.544 12.2976 30.88C11.9856 31.204 11.8296 31.576 11.8296 31.996V33.472ZM18.4905 33.472V31.996C18.4905 31 18.8025 30.142 19.4265 29.422C20.0625 28.702 20.8185 28.342 21.6945 28.342C22.2225 28.342 22.6845 28.474 23.0805 28.738C23.4885 29.002 23.8005 29.326 24.0165 29.71V24.184C24.0165 23.968 24.1245 23.794 24.3405 23.662C24.5685 23.53 24.8505 23.464 25.1865 23.464C25.5225 23.464 25.7985 23.53 26.0145 23.662C26.2305 23.794 26.3385 23.968 26.3385 24.184V36.262C26.3385 36.454 26.2245 36.628 25.9965 36.784C25.7805 36.928 25.5105 37 25.1865 37C24.9105 37 24.6645 36.922 24.4485 36.766C24.2445 36.61 24.1425 36.442 24.1425 36.262V35.74C23.9505 36.124 23.6205 36.46 23.1525 36.748C22.6965 37.024 22.1925 37.162 21.6405 37.162C20.8125 37.162 20.0805 36.79 19.4445 36.046C18.8085 35.302 18.4905 34.444 18.4905 33.472ZM20.8125 33.472C20.8125 33.892 20.9685 34.276 21.2805 34.624C21.5925 34.96 21.9585 35.128 22.3785 35.128C22.7985 35.128 23.1765 34.966 23.5125 34.642C23.8485 34.306 24.0165 34.024 24.0165 33.796V31.996C24.0165 31.516 23.8485 31.126 23.5125 30.826C23.1885 30.526 22.8165 30.376 22.3965 30.376C21.9645 30.376 21.5925 30.544 21.2805 30.88C20.9685 31.204 20.8125 31.576 20.8125 31.996V33.472ZM28.022 25.408C28.022 25.096 28.142 24.832 28.382 24.616C28.634 24.388 28.94 24.274 29.3 24.274C29.648 24.274 29.942 24.388 30.182 24.616C30.434 24.832 30.56 25.096 30.56 25.408C30.56 25.708 30.434 25.972 30.182 26.2C29.942 26.428 29.648 26.542 29.3 26.542C28.94 26.542 28.634 26.428 28.382 26.2C28.142 25.972 28.022 25.708 28.022 25.408ZM28.148 36.262V29.17C28.148 28.954 28.256 28.78 28.472 28.648C28.688 28.516 28.964 28.45 29.3 28.45C29.636 28.45 29.912 28.516 30.128 28.648C30.356 28.78 30.47 28.954 30.47 29.17V36.262C30.47 36.442 30.35 36.61 30.11 36.766C29.882 36.922 29.612 37 29.3 37C28.976 37 28.7 36.928 28.472 36.784C28.256 36.628 28.148 36.454 28.148 36.262ZM32.2613 36.262V29.17C32.2613 28.954 32.3633 28.78 32.5673 28.648C32.7833 28.516 33.0653 28.45 33.4133 28.45C33.7013 28.45 33.9413 28.516 34.1333 28.648C34.3373 28.78 34.4393 28.954 34.4393 29.17V29.71C34.6313 29.326 34.9373 29.002 35.3573 28.738C35.7893 28.474 36.2873 28.342 36.8513 28.342C37.6793 28.342 38.3993 28.702 39.0113 29.422C39.6353 30.142 39.9473 31 39.9473 31.996V36.262C39.9473 36.49 39.8273 36.67 39.5873 36.802C39.3593 36.934 39.0893 37 38.7773 37C38.4773 37 38.2073 36.934 37.9673 36.802C37.7393 36.67 37.6253 36.49 37.6253 36.262V31.996C37.6253 31.576 37.4693 31.204 37.1573 30.88C36.8453 30.544 36.4793 30.376 36.0593 30.376C35.6633 30.376 35.3153 30.526 35.0153 30.826C34.7273 31.126 34.5833 31.516 34.5833 31.996V36.262C34.5833 36.442 34.4633 36.61 34.2233 36.766C33.9953 36.922 33.7253 37 33.4133 37C33.0893 37 32.8133 36.928 32.5853 36.784C32.3693 36.628 32.2613 36.454 32.2613 36.262ZM41.0532 38.44C41.0532 37.612 41.4912 36.976 42.3672 36.532C41.8632 36.292 41.6112 35.908 41.6112 35.38C41.6112 34.852 41.9172 34.384 42.5292 33.976C41.7852 33.4 41.4132 32.638 41.4132 31.69V31.312C41.4132 30.436 41.7372 29.722 42.3852 29.17C43.0332 28.618 43.8792 28.342 44.9232 28.342C45.7152 28.342 46.3992 28.516 46.9752 28.864C47.3352 28.048 47.7012 27.64 48.0732 27.64C48.3492 27.64 48.5712 27.718 48.7392 27.874C48.9072 28.03 48.9912 28.192 48.9912 28.36C48.9912 28.552 48.8952 28.72 48.7032 28.864C48.2592 29.176 47.9772 29.404 47.8572 29.548C48.2772 30.04 48.4872 30.628 48.4872 31.312V31.69C48.4872 32.554 48.1512 33.274 47.4792 33.85C46.8192 34.414 45.9672 34.696 44.9232 34.696C44.4912 34.696 44.1012 34.642 43.7532 34.534C43.6092 34.654 43.5372 34.774 43.5372 34.894C43.5372 35.098 43.7232 35.248 44.0952 35.344C44.4672 35.44 44.9172 35.524 45.4452 35.596C45.9852 35.656 46.5192 35.752 47.0472 35.884C47.5752 36.004 48.0252 36.256 48.3972 36.64C48.7692 37.024 48.9552 37.528 48.9552 38.152C48.9552 39.088 48.5772 39.79 47.8212 40.258C47.0652 40.738 46.1352 40.978 45.0312 40.978C43.9152 40.978 42.9732 40.75 42.2052 40.294C41.4372 39.838 41.0532 39.22 41.0532 38.44ZM43.2492 38.206C43.2492 38.602 43.4172 38.914 43.7532 39.142C44.0892 39.37 44.5032 39.484 44.9952 39.484C45.4872 39.484 45.8952 39.37 46.2192 39.142C46.5432 38.914 46.7052 38.608 46.7052 38.224C46.7052 38.056 46.6752 37.906 46.6152 37.774C46.5552 37.654 46.4472 37.552 46.2912 37.468C46.1472 37.384 46.0152 37.312 45.8952 37.252C45.7872 37.204 45.6072 37.156 45.3552 37.108C45.1032 37.072 44.9172 37.048 44.7972 37.036C44.6892 37.024 44.4972 37 44.2212 36.964C43.5732 37.264 43.2492 37.678 43.2492 38.206ZM43.6632 31.672C43.6632 32.14 43.7772 32.53 44.0052 32.842C44.2332 33.142 44.5512 33.292 44.9592 33.292C45.3552 33.292 45.6672 33.148 45.8952 32.86C46.1232 32.56 46.2372 32.17 46.2372 31.69V31.312C46.2372 30.868 46.1172 30.496 45.8772 30.196C45.6492 29.896 45.3372 29.746 44.9412 29.746C44.5452 29.746 44.2332 29.896 44.0052 30.196C43.7772 30.484 43.6632 30.856 43.6632 31.312V31.672ZM50.0843 36.748C49.8563 36.508 49.7423 36.22 49.7423 35.884C49.7423 35.548 49.8563 35.26 50.0843 35.02C50.3243 34.78 50.6183 34.66 50.9663 34.66C51.2903 34.66 51.5723 34.78 51.8123 35.02C52.0523 35.26 52.1723 35.548 52.1723 35.884C52.1723 36.208 52.0523 36.496 51.8123 36.748C51.5723 36.988 51.2903 37.108 50.9663 37.108C50.6183 37.108 50.3243 36.988 50.0843 36.748ZM53.2956 33.472V32.032C53.2956 30.928 53.6196 30.04 54.2676 29.368C54.9156 28.684 55.8876 28.342 57.1836 28.342C57.9996 28.342 58.6836 28.486 59.2356 28.774C59.7876 29.062 60.0636 29.386 60.0636 29.746C60.0636 29.998 59.9736 30.25 59.7936 30.502C59.6136 30.754 59.3976 30.88 59.1456 30.88C59.0736 30.88 58.8576 30.796 58.4976 30.628C58.1496 30.46 57.7716 30.376 57.3636 30.376C56.1996 30.376 55.6176 30.928 55.6176 32.032V33.472C55.6176 34.576 56.2056 35.128 57.3816 35.128C57.7896 35.128 58.1676 35.038 58.5156 34.858C58.8636 34.678 59.0856 34.588 59.1816 34.588C59.4696 34.588 59.7036 34.708 59.8836 34.948C60.0756 35.188 60.1716 35.434 60.1716 35.686C60.1716 36.058 59.8776 36.4 59.2896 36.712C58.7136 37.012 58.0176 37.162 57.2016 37.162C55.8936 37.162 54.9156 36.826 54.2676 36.154C53.6196 35.482 53.2956 34.588 53.2956 33.472ZM60.994 33.472V31.996C60.994 31.012 61.378 30.16 62.146 29.44C62.914 28.708 63.832 28.342 64.9 28.342C65.944 28.342 66.856 28.702 67.636 29.422C68.416 30.142 68.806 31 68.806 31.996V33.472C68.806 34.444 68.416 35.302 67.636 36.046C66.856 36.79 65.944 37.162 64.9 37.162C63.856 37.162 62.944 36.79 62.164 36.046C61.384 35.302 60.994 34.444 60.994 33.472ZM63.316 33.472C63.316 33.904 63.472 34.288 63.784 34.624C64.096 34.96 64.468 35.128 64.9 35.128C65.32 35.128 65.686 34.96 65.998 34.624C66.322 34.288 66.484 33.904 66.484 33.472V31.996C66.484 31.588 66.322 31.216 65.998 30.88C65.686 30.544 65.32 30.376 64.9 30.376C64.468 30.376 64.096 30.544 63.784 30.88C63.472 31.204 63.316 31.576 63.316 31.996V33.472ZM70.2828 36.262V29.17C70.2828 28.954 70.3848 28.78 70.5888 28.648C70.8048 28.516 71.0868 28.45 71.4348 28.45C71.7228 28.45 71.9628 28.516 72.1548 28.648C72.3588 28.78 72.4608 28.954 72.4608 29.17V29.71C72.9768 28.798 73.7688 28.342 74.8368 28.342C75.3408 28.342 75.7908 28.51 76.1868 28.846C76.5948 29.17 76.8948 29.602 77.0868 30.142C77.3868 29.554 77.7768 29.11 78.2568 28.81C78.7488 28.498 79.2648 28.342 79.8048 28.342C80.6688 28.342 81.4188 28.672 82.0548 29.332C82.6908 29.992 83.0088 30.88 83.0088 31.996V36.262C83.0088 36.442 82.8888 36.61 82.6488 36.766C82.4208 36.922 82.1508 37 81.8388 37C81.5388 37 81.2688 36.922 81.0288 36.766C80.8008 36.61 80.6868 36.442 80.6868 36.262V31.996C80.6868 31.492 80.5428 31.096 80.2548 30.808C79.9668 30.508 79.6248 30.358 79.2288 30.358C78.8448 30.358 78.5088 30.508 78.2208 30.808C77.9448 31.096 77.8068 31.486 77.8068 31.978V36.28C77.8068 36.52 77.6928 36.7 77.4648 36.82C77.2368 36.94 76.9608 37 76.6368 37C76.3368 37 76.0668 36.94 75.8268 36.82C75.5988 36.688 75.4848 36.508 75.4848 36.28V31.996C75.4848 31.516 75.3348 31.126 75.0348 30.826C74.7468 30.526 74.4048 30.376 74.0088 30.376C73.6248 30.376 73.2948 30.52 73.0188 30.808C72.7428 31.096 72.6048 31.492 72.6048 31.996V36.262C72.6048 36.442 72.4848 36.61 72.2448 36.766C72.0168 36.922 71.7468 37 71.4348 37C71.1108 37 70.8348 36.928 70.6068 36.784C70.3908 36.628 70.2828 36.454 70.2828 36.262Z" fill="white"/>
</svg>
