<svg width="39" height="39" viewBox="0 0 39 39" fill="none" xmlns="http://www.w3.org/2000/svg">
<g clip-path="url(#clip0_130_132)">
<path fill-rule="evenodd" clip-rule="evenodd" d="M38.8352 16.8152C38.3952 13.3728 37.0191 10.1155 34.8554 7.39491C31.8155 3.57039 27.4364 1.03069 22.5954 0.284575C17.7544 -0.461537 12.809 0.641045 8.74997 3.37144C4.69089 6.10184 1.8179 10.2584 0.706515 15.0085C-0.404868 19.7585 0.327441 24.7513 2.75674 28.9866L0 39L10.2918 36.3121C13.1406 37.8563 16.3325 38.6654 19.576 38.6656C22.3392 38.6635 25.0701 38.0749 27.5867 36.9389C30.1033 35.803 32.3477 34.1459 34.1703 32.0782C35.9928 30.0104 37.3516 27.5795 38.156 24.9476C38.9604 22.3157 39.192 19.5433 38.8352 16.8152ZM19.5824 35.5107C16.6838 35.5159 13.8375 34.7421 11.3438 33.2708L10.7735 32.9238L4.66428 34.5201L6.29298 28.5954L5.9064 27.9644C3.69298 24.4088 2.95864 20.1343 3.85928 16.0484C4.75992 11.9625 7.22463 8.38703 10.7301 6.08107C14.2355 3.77511 18.5057 2.92028 22.6339 3.69809C26.7621 4.4759 30.4233 6.82509 32.8401 10.2469C34.1598 12.104 35.0513 14.2283 35.4511 16.4682C35.8864 18.7898 35.8031 21.1783 35.2071 23.4641C34.611 25.75 33.5169 27.8773 32.0023 29.6948C30.4876 31.5123 28.5897 32.9756 26.4433 33.9808C24.2968 34.9859 21.9544 35.5083 19.5824 35.5107ZM28.4547 23.2637C27.9667 23.0239 25.5838 21.8566 25.1402 21.6926C24.6966 21.5285 24.3671 21.4528 24.0439 21.9324C23.7207 22.4119 22.7764 23.5035 22.5102 23.8253C22.2441 24.1471 21.9462 24.1912 21.4582 23.9515C20.0291 23.3799 18.7087 22.569 17.5544 21.5538C16.4944 20.5748 15.5848 19.4459 14.8547 18.2034C14.5759 17.7238 14.8547 17.4588 15.0702 17.219C15.2857 16.9793 15.5582 16.6575 15.799 16.3736C15.9991 16.1298 16.1615 15.8575 16.2806 15.5659C16.3459 15.4331 16.3766 15.2861 16.3699 15.1383C16.3633 14.9906 16.3195 14.8469 16.2426 14.7204C16.1222 14.4807 15.1526 12.1019 14.747 11.1365C14.3414 10.1712 13.9422 10.3226 13.638 10.31C13.3338 10.2974 13.0042 10.31 12.7064 10.31C12.4629 10.3228 12.2247 10.3855 12.0066 10.494C11.7886 10.6026 11.5953 10.7547 11.4389 10.9409C10.8906 11.4578 10.4564 12.0826 10.164 12.7757C9.87159 13.4688 9.72736 14.2149 9.74049 14.9665C9.74049 17.3452 11.4769 19.642 11.7177 19.9637C11.9586 20.2855 15.1399 25.1629 20.007 27.2577C20.9112 27.6455 21.8356 27.9846 22.7764 28.2736C23.7659 28.5728 24.8119 28.6376 25.831 28.4629C26.7626 28.324 28.7018 27.2956 29.1074 26.1661C29.4281 25.4453 29.5252 24.6456 29.3862 23.8694C29.2405 23.6234 28.9173 23.5035 28.4356 23.2637H28.4547Z" fill="white"/>
</g>
<defs>
<clipPath id="clip0_130_132">
<rect width="39" height="39" fill="white"/>
</clipPath>
</defs>
</svg>
