<svg width="404" height="332" viewBox="0 0 404 332" fill="none" xmlns="http://www.w3.org/2000/svg">
<path d="M129.889 207.58C130.053 207.226 130.407 207 130.797 207H194.802C195.183 207 195.53 207.216 195.699 207.557L217.413 251.557C217.741 252.222 217.257 253 216.516 253H110.44C109.709 253 109.225 252.243 109.532 251.58L129.889 207.58Z" fill="#DBDBDB"/>
<path d="M0 10C0 4.47715 4.47715 0 10 0H314C319.523 0 324 4.47715 324 10V181H0V10Z" fill="#544F4F"/>
<path d="M11 11C11 9.89543 11.8954 9 13 9H311C312.105 9 313 9.89543 313 11V172H11V11Z" fill="#8BB6B3"/>
<path d="M11 11C11 9.89543 11.8954 9 13 9H311C312.105 9 313 9.89543 313 11V17H11V11Z" fill="#BFF9F5"/>
<circle cx="274" cy="13" r="2" fill="#81D11B"/>
<circle cx="287" cy="13" r="2" fill="#CBB80D"/>
<circle cx="300" cy="13" r="2" fill="#E31B1B"/>
<path d="M324 203C324 208.523 319.523 213 314 213L10 213C4.47714 213 3.91405e-07 208.523 8.74228e-07 203L2.79753e-06 181L324 181L324 203Z" fill="#E8E6DE"/>
<circle cx="162.062" cy="196.938" r="10.0625" fill="white"/>
<path fill-rule="evenodd" clip-rule="evenodd" d="M82.5 61C79.7386 61 77.5 63.2386 77.5 66V73.2094C70.7713 75.816 66 82.3508 66 90V137C66 139.209 67.7909 141 70 141H98C100.209 141 102 139.209 102 137V90C102 82.3508 97.2287 75.816 90.5 73.2094V66C90.5 63.2386 88.2614 61 85.5 61H82.5Z" fill="#D0E2A8"/>
<path d="M89 72V68" stroke="black" stroke-opacity="0.1" stroke-linecap="round"/>
<path d="M79 72V68" stroke="white" stroke-opacity="0.5" stroke-linecap="round"/>
<path d="M69 90C69 85.6539 70.8484 81.7395 73.8019 79" stroke="white" stroke-opacity="0.36" stroke-linecap="round"/>
<path d="M99 90C99 83.8491 95.2977 78.5628 90 76.2481" stroke="black" stroke-opacity="0.1" stroke-width="1.2" stroke-linecap="round"/>
<path d="M77.5 66C77.5 63.2386 79.7386 61 82.5 61H85.5C88.2614 61 90.5 63.2386 90.5 66V67H77.5V66Z" fill="#539B92"/>
<path d="M99 94.6577V133.373C99 135.376 97.2091 137 95 137H73C70.7909 137 69 135.376 69 133.373V107.076C69 107.076 69.5 104.809 74.5 103.449C79.5 102.089 85 105.263 90 98.4616C95 91.6607 99 94.6577 99 94.6577Z" fill="#7BA3A8"/>
<path d="M69 94.6577V133.373C69 135.376 70.7909 137 73 137H95C97.2091 137 99 135.376 99 133.373V107.076C99 107.076 98.5 104.809 93.5 103.449C88.5 102.089 83 105.263 78 98.4616C73 91.6607 69 94.6577 69 94.6577Z" fill="#4F9CA7"/>
<line x1="86.5" y1="62.2" x2="81.5" y2="62.2" stroke="white" stroke-opacity="0.5" stroke-linecap="round"/>
<rect x="11" y="17" width="302" height="20" fill="#599854"/>
<rect x="76" y="24" width="46" height="6" rx="3" fill="#514444"/>
<rect x="158" y="62" width="60" height="6" rx="3" fill="#7AA64F"/>
<rect x="158" y="85" width="118" height="6" rx="3" fill="#7AA64F"/>
<rect x="158" y="108" width="118" height="6" rx="3" fill="#7AA64F"/>
<rect x="158" y="131" width="52" height="10" rx="4" fill="#397495"/>
<rect x="139" y="24" width="46" height="6" rx="3" fill="#514444"/>
<rect x="202" y="24" width="46" height="6" rx="3" fill="#514444"/>
<path d="M254.288 128.302L373.604 225.757L334.148 244.423L365.542 298.799L355.929 304.35L346.316 309.9L314.922 255.524L279.028 280.36L254.288 128.302Z" fill="white"/>
</svg>
