<svg width="301" height="255" viewBox="0 0 301 255" fill="none" xmlns="http://www.w3.org/2000/svg">
<circle cx="99.2615" cy="57.5266" r="57.5266" fill="#E0AC69"/>
<path d="M100.389 0C67.6778 0 51.8862 22.5594 47.8903 31.5832H150.605C148.892 27.0713 133.1 0 100.389 0Z" fill="#332C2C"/>
<path d="M99.3955 119.565C54.7454 119.565 18.1009 148.467 5.08697 188.607C-0.533984 205.944 14.7746 221.082 33 221.082H167.779C186.004 221.082 201.307 205.922 195.494 188.648C181.981 148.487 144.061 119.565 99.3955 119.565Z" fill="#184A95"/>
<circle cx="198.577" cy="57.5266" r="57.5266" fill="#F2CE9F"/>
<path d="M199.705 0C166.994 0 151.202 22.5594 147.206 31.5832H249.92C248.208 27.0713 232.416 0 199.705 0Z" fill="#332C2C"/>
<path d="M198.711 119.565C154.061 119.565 117.417 148.467 104.403 188.607C98.7818 205.944 114.09 221.082 132.316 221.082H267.095C285.32 221.082 300.623 205.922 294.81 188.648C281.296 148.487 243.377 119.565 198.711 119.565Z" fill="#566273"/>
<circle cx="150.5" cy="180.5" r="74.5" fill="#4F6A9D"/>
<path fill-rule="evenodd" clip-rule="evenodd" d="M136.868 165.084C136.868 156.617 143.733 149.753 152.2 149.753C160.667 149.753 167.532 156.617 167.532 165.084C167.532 169.237 165.886 172.997 163.203 175.761C162.793 176.184 161.553 177.011 159.668 178.003C157.938 178.912 156.115 179.732 154.978 180.205C149.503 182.483 147.086 186.55 146.194 190.765C145.58 193.665 145.676 196.948 145.746 199.368V199.368L145.746 199.369C145.766 200.041 145.784 200.646 145.784 201.158C145.784 203.367 147.574 205.158 149.784 205.158C151.993 205.158 153.784 203.367 153.784 201.158C153.784 200.17 153.758 199.253 153.735 198.386V198.386C153.674 196.176 153.623 194.299 154.02 192.422C154.466 190.318 155.415 188.688 158.052 187.591C159.36 187.047 161.407 186.127 163.392 185.083C165.22 184.121 167.537 182.782 168.943 181.333C173.017 177.136 175.532 171.4 175.532 165.084C175.532 152.199 165.086 141.753 152.2 141.753C139.314 141.753 128.868 152.199 128.868 165.084C128.868 167.293 130.659 169.084 132.868 169.084C135.078 169.084 136.868 167.293 136.868 165.084ZM150.316 220.105C152.984 220.105 155.147 217.942 155.147 215.274C155.147 212.605 152.984 210.442 150.316 210.442C147.647 210.442 145.484 212.605 145.484 215.274C145.484 217.942 147.647 220.105 150.316 220.105Z" fill="#1C1A74"/>
</svg>
